<?xml version="1.0" encoding="UTF-8"?>
<svg id="Layer_2" data-name="Layer 2" xmlns="http://www.w3.org/2000/svg" viewBox="0 0 637.94 505.98">
  <defs>
    <style>
      .cls-1 {
        stroke: rgba(2, 0, 0, .87);
      }

      .cls-1, .cls-2, .cls-3, .cls-4, .cls-5, .cls-6, .cls-7, .cls-8, .cls-9, .cls-10, .cls-11, .cls-12, .cls-13, .cls-14, .cls-15, .cls-16, .cls-17, .cls-18, .cls-19 {
        stroke-linecap: round;
        stroke-linejoin: round;
      }

      .cls-1, .cls-3, .cls-4, .cls-7, .cls-11, .cls-16, .cls-17 {
        fill: #ce3b28;
      }

      .cls-2 {
        stroke-width: 1.35px;
      }

      .cls-2, .cls-12 {
        fill: rgba(94, 94, 92, .99);
      }

      .cls-2, .cls-19 {
        stroke: rgba(1, 2, 0, .22);
      }

      .cls-3 {
        stroke: rgba(1, 2, 0, .86);
        stroke-width: .87px;
      }

      .cls-20 {
        fill: #cad4ee;
      }

      .cls-21 {
        fill: rgba(23, 24, 20, .92);
      }

      .cls-4 {
        stroke: #050000;
        stroke-width: .88px;
      }

      .cls-5 {
        stroke: rgba(1, 1, 0, .15);
      }

      .cls-5, .cls-9 {
        fill: #585758;
        stroke-width: 1.32px;
      }

      .cls-6 {
        fill: #9a0000;
        stroke: #020200;
        stroke-width: .9px;
      }

      .cls-7 {
        stroke: rgba(1, 0, 0, .77);
      }

      .cls-7, .cls-16 {
        stroke-width: .82px;
      }

      .cls-22 {
        fill: #adadac;
      }

      .cls-8 {
        fill: rgba(201, 201, 201, .71);
        stroke: rgba(1, 2, 0, .59);
        stroke-width: 1.15px;
      }

      .cls-9 {
        stroke: rgba(1, 1, 0, .2);
      }

      .cls-10 {
        stroke: rgba(1, 1, 0, .89);
        stroke-width: .62px;
      }

      .cls-23 {
        fill: rgba(139, 138, 137, .6);
      }

      .cls-11 {
        stroke: #030300;
      }

      .cls-11, .cls-19 {
        stroke-width: .95px;
      }

      .cls-12 {
        stroke: rgba(1, 2, 0, .28);
        stroke-width: 1.35px;
      }

      .cls-13 {
        fill: rgba(237, 248, 242, .77);
        stroke: rgba(2, 0, 0, .82);
        stroke-width: 1.12px;
      }

      .cls-14 {
        fill: rgba(206, 63, 40, .87);
        stroke: rgba(1, 0, 0, .53);
        stroke-width: .42px;
      }

      .cls-24 {
        fill: #c4c2c4;
      }

      .cls-25 {
        fill: #28251f;
      }

      .cls-15 {
        fill: rgba(237, 248, 242, .72);
        stroke: rgba(1, 0, 0, .67);
        stroke-width: 1.8px;
      }

      .cls-16 {
        stroke: rgba(3, 3, 0, .81);
      }

      .cls-26 {
        fill: #bbbbbd;
      }

      .cls-17 {
        stroke: #010000;
        stroke-width: .8px;
      }

      .cls-18 {
        fill: rgba(237, 248, 242, .72);
        stroke: rgba(3, 3, 0, .8);
        stroke-width: .82px;
      }

      .cls-19 {
        fill: #c9c9c9;
      }
    </style>
  </defs>
  <g id="svg2">
    <g id="layer1">
      <g id="g34996">
        <path id="path33122" class="cls-24" d="M551.05,457.37c12.89-.26,41.81-18.15,50.76-30.25,8.94-12.09,16.3-56.8-.53-28.4-16.83,28.4-23.93,38.93-53.12,48.92-29.19,9.99,2.89,10.25,2.89,9.73Z"/>
        <path id="path28577" class="cls-4" d="M493.83,449.31l26.88-26.27s3.06,5.51,11.61,3.67c8.55-1.84,80.03-50.71,84.92-61.71,4.89-10.99,6.72,1.22,6.72,1.22,0,0-5.51,20.77-26.27,36.66-20.77,15.88-51.33,37.26-66.59,40.93-15.28,3.67-36.05,5.5-37.27,5.5h0Z"/>
        <path id="path27671" class="cls-20" d="M490.17,451.15c-20.62-4.65-43.99-23.21-36.65-31.77,7.32-8.56,11.61-9.78,11.61-9.78l58.04,9.78s14.59,5,14.66,12.83c.06,7.25-27.04,23.6-47.66,18.94h0Z"/>
        <path id="path21491" class="cls-25" d="M9.77,239.88l23.14-10.51s-1.05-3.69,22.09-15.78c23.15-12.09-50.49-12.09-48.39,3.68,2.1,15.78,4.21,23.15,3.16,22.62Z"/>
        <path id="path21489" class="cls-25" d="M318.58,433.96l23.15-10.51s-12.09-15.25,11.04-27.35c23.15-12.09,49.96-4.73,33.66-18.93-16.3-14.2-28.92-29.45-50.49-16.31-21.57,13.15-26.82,37.35-24.72,53.12,2.1,15.78,8.42,20.52,7.36,19.99h0Z"/>
        <path id="path21487" class="cls-22" d="M385.38,330.88c-26.3-10.52-119.92-130.44-119.92-130.44l136.75-107.3s95.72,84.15,122.02,105.19c26.3,21.04-33.66,102.03-33.66,102.03l-105.19,30.51h0Z"/>
        <g id="g23254">
          <path id="path17974" class="cls-2" d="M335.07,399.15c16.55-12.19,17.5-11.66,21.48-13.76,9.49-4.71,37.96-10.28,61.15,14.27,23.27,24.55,33,58.95,21.81,76.78-11.19,17.83-32.71,24.7-36.73,26.2"/>
          <path id="path2225" class="cls-9" d="M391.45,417.48c23.35,24.33,33.45,58.78,22.55,76.93-10.89,18.15-38.65,13.14-62-11.2-.36-.37-.71-.75-1.07-1.13-23.35-24.33-33.45-58.78-22.55-76.93,10.89-18.15,38.65-13.14,62,11.19,.36,.37,.71,.75,1.07,1.13h0Z"/>
        </g>
        <g id="g22368">
          <path id="path19729" class="cls-12" d="M25.25,226.09c16.79-9.98,16.93-7.77,20.87-9.39,18.1-8.49,37.77-8.02,56.97,17.61s24.89,59.34,12.62,75.24c-12.28,15.9-29.35,18.02-35.15,20.73"/>
          <path id="path19731" class="cls-5" d="M76.71,248.75c19.37,25.44,25.33,59.21,13.3,75.44s-37.49,8.77-56.86-16.67c-.3-.39-.59-.78-.88-1.18-19.37-25.43-25.33-59.21-13.3-75.44,12.03-16.23,37.49-8.77,56.86,16.66,.3,.39,.59,.78,.88,1.18h0Z"/>
        </g>
        <path id="path3977" class="cls-21" d="M344.6,295.82s62.85-28.64,71.78-45.75c8.93-17.11,4.84-41.28,28.26-55.05,23.44-13.76,42.4-18.22,50.58-15.99s24.96,2.22,32.28,29.56c7.38,27.59-6.86,51.05-40.61,80.8-33.75,29.76-101.75,35.05-101.75,35.05l-21.19-8.56-19.34-20.08Z"/>
        <path id="path25892" class="cls-26" d="M30.61,153.38c-2.89-2.35-3.61-12.81-6.5-15.16,11.78-13.74,21.32-22.25,34.87-31.59,6.49-5.36,14.52-9.41,23.01-9.98,6.83-.66,4.25,7.27,1.01,9.95-11.48,12.68-21.91,26.32-34.08,38.36-3.69,3.12-7.46,7.66-12.69,7.6-1.6-.69-7.71-3.66-5.63,.82Z"/>
        <path id="path7480" class="cls-6" d="M15.45,147.42s-15.16,10.84-11.37,30.33c3.79,19.5,31.95,15.17,31.95,15.17,0,0,15.16-2.17-.54-23.29-15.71-21.13-19.5-22.21-20.04-22.21Z"/>
        <path id="path6604" class="cls-15" d="M29.49,152.81c-2.89-2.35-5.79-10.21-5.37-14.6,11.78-13.74,24.85-24.25,34.87-31.59,10.02-7.35,14.52-9.41,23.01-9.98,6.83-.66,4.25,7.27,1.01,9.95-4.43,6.9-21.91,26.32-34.08,38.36-3.69,3.12-4.29,7.17-9.52,7.1-1.53,1-5.67,1.34-9.92,.75Z"/>
        <path id="path14468" class="cls-17" d="M80.98,108.39c-12.46-4.33-20.58-9.75-6.51-24.37,14.09-14.62,59.58-48.2,68.25-54.16,8.66-5.96,41.16-26,51.45-28.71s30.87,2.71,30.87,2.71L80.98,108.39h0Z"/>
        <path id="path13593" class="cls-7" d="M80.44,109.47s36.29-41.16,73.12-66.07C190.38,18.49,207.67,2.24,220.71,2.24c20.58,0,88.28,27.62,136.49,55.25,48.2,27.62,142.44,116.44,156.52,133.23-46.57-42.79-109.4-94.24-109.4-94.24,0,0-32.5,37.37-53.08,53.62-20.58,16.25-75.28,52-75.28,52l98.57,119.15-5.95,2.7s-17.87,1.63-26.54-12.99c-8.66-14.62-59.23-80.23-89.36-103.45-33.04-25.45-84.09-52.44-110.49-67.7-24.37-14.08-60.66-29.78-61.74-30.33h0Z"/>
        <path id="path20612" class="cls-22" d="M64.54,193.08l261.93,164.1s21.04-37.87,0-67.32c-21.04-29.45-53.65-67.32-85.2-91.52-31.56-24.2-134.65-83.1-149.37-77.84-14.73,5.26-30.5,10.51-31.56,28.4-1.05,17.89,5.27,46.28,4.21,44.18h0Z"/>
        <path id="path29520" class="cls-23" d="M317.01,341.4L71.91,196.24s-15.78-48.39,7.37-29.45c23.14,18.93,54.7,17.88,54.7,17.88,0,0,38.92-6.32,68.37,25.25,29.45,31.55,33.66,59.96,68.37,68.37,34.72,8.42,38.93,13.67,41.03,30.5,2.11,16.83,7.37,35.77,5.27,32.61Z"/>
        <path id="path1350" class="cls-3" d="M80.94,109.12c-3.59,6.32-36.08,42.03-45.75,42.78-9.67,.74-11.16-14.88-11.16-14.88,0,0-8.93,6.69-8.19,13.38,.74,6.7,26.04,37.19,17.49,40.17-8.55,2.98-28.65-11.16-28.65-11.16-.3,.16-5.16,2.93-4.08,24.18,1.12,21.95,4.83,20.81,4.83,28.63s1.85,8.56,4.83,8.18,5.58-17.85,19.71-22.67c14.13-4.84,23.81-.76,36.45,10.77,12.65,11.52,26.04,26.79,30.87,52.82,4.84,26.04-1.86,20.81,2.6,26.01s7.8,3.36,14.49,8.19c6.7,4.84,186.71,103.78,189.69,108.24,2.98,4.46,8.55,10.4,13.38,10.77s1.69-10.56,1.5-21.93c-.21-12.99,3.7-26.8,10.03-31.26,6.32-4.46,17.49-11.15,45.38,9.3,27.9,20.46,43.89,34.59,52.44,49.83,8.56,15.25,62.85,28.29,62.85,28.29l-1.5-21.2s-7.8,.74-18.21-8.56c-10.42-9.29-11.9-14.51-11.16-18.6,.9-4.94,4.03-6.51,4.41-6.69l-99.63-95.22s-10.79,1.12-22.32-15.99c-11.53-17.11-40.16-63.59-82.56-94.08-42.4-30.5-146.28-92.98-177.75-99.3h0Zm10.28,21.21c1.36-.02,2.82,.08,4.4,.28,12.99,1.63,133.23,66.06,155.97,88.81,22.75,22.75,69.34,76.91,68.79,98.58-.52,20.99-3.09,25.2-3.26,25.44h-.54l-142.98-83.95-101.81-63.37c5.96-23.83-3.27-38.43,1.06-49.8,3.81-9.99,8.47-15.83,18.37-15.99Zm93.18,45.98c-.44,2.02-4.02,18.46-5.37,29.04-1.07,8.38-5.36,48.4-5.42,53.47l10.8-82.51Z"/>
        <path id="path5729" class="cls-1" d="M472.91,452.75l-12.28-3.35s-13.39-8.92-18.6-7.43c-5.2,1.49-10.04,15.99-2.97,27.15,7.06,11.16,36.07,12.65,49.09,13.39,13.02,.74,41.65,1.85,67.31-16.74,25.67-18.6,51.7-36.82,59.88-54.67,8.18-17.85-.74-17.1-.74-17.1,0,0-11.53,34.59-27.52,45.37-16,10.78-22.69,17.1-47.23,16.36-24.55-.74-66.57-2.98-66.94-2.98h0Z"/>
        <path id="path4854" class="cls-10" d="M587.59,410.65c-18.8,12.35-55.55,38.01-83.44,37.64s-45.37-3.71-45.37,1.12,30.12,23.44,59.5,18.6,70.66-31.98,83.31-45c12.65-13.02,31.21-31.43,34.59-55.78,3.35-24.18,.37-39.42-3.35-47.23-5.21,4.09,1.12,7.07-.74,17.48-1.86,10.42-4.01,24.58-9.13,32.87-11.82,19.11-16.39,27.87-35.36,40.32h0Z"/>
        <path id="path28546" class="cls-20" d="M617.85,313.08l4.28,28.72s-3.06,11.61-2.45,18.94c.61,7.33,9.78,7.33,12.22-25.05,2.45-32.38-7.33-43.99-7.33-43.99,0,0-6.11-10.39-7.32,10.38-1.22,20.77,1.22,10.38,.6,10.99Z"/>
        <path id="path2227" class="cls-11" d="M463.61,413.33l71.35,12.76c40.51-7.77,75.51-42.41,84.85-66.68,0,0,6.32-10.04,4.09-30.12-2.23-20.09-7.44-36.45-4.84-39.42s-64.72-76.61-89.26-93.72c-24.54-17.1-20.82-11.9-10.79,1.86,10.04,13.76,.74,37.56-5.57,47.98-6.32,10.42-20.46,33.47-27.9,35.33-7.43,1.86-8.55-1.86-11.52,1.12s-27.9,22.68-46.86,29.75c-18.97,7.07-45.42,15.77-59.87,3.72l-2.6,2.98,98.92,94.46h0Z"/>
        <path id="path3102" class="cls-13" d="M273.33,202.46l93.34,112.69s4.46,10.04,21.2,4.09c16.74-5.95,69.92-34.59,94.47-62.48,24.54-27.9,38.31-49.09,26.4-65.46-11.9-16.36-99.67-92.23-105.25-95.2-3.72,6.32-21.39,27.34-53.93,53.93-32.54,26.58-76.23,52.43-76.23,52.43h0Z"/>
        <path id="path16226" class="cls-16" d="M173.06,260.56c0,20.23,2.57,30.35,2.7,70.98m139.73,11.91l-142.98-83.95-101.82-63.37m245.34,147.32s-5.95,33.58-16.79,41.7c-10.83,8.13-18.41,10.29-56.32-12.99-37.92-23.29-125.11-69.87-133.24-82.87-8.13-12.99-6.5-17.87-17.33-36.28-10.84-18.42-23.29-29.25-23.83-37.37-.55-8.13,2.17-19.5,2.17-19.5"/>
        <path id="path20609" class="cls-18" d="M185.98,175.83s-3.95,17.86-5.39,29.08c-1.07,8.41-5.39,48.76-5.39,53.29m142.28,84.04l-142.28-83.47-101.32-63c5.93-23.7-3.23-38.24,1.07-49.55,4.32-11.31,9.7-17.23,22.64-15.62,12.93,1.62,132.58,65.7,155.21,88.32,22.64,22.62,68.99,76.46,68.45,98.01-.54,21.54-3.23,25.31-3.23,25.31"/>
        <g id="g25009">
          <path id="path24133" class="cls-8" d="M386.63,427.76c15.89,18.65,21.49,43.62,12.41,55.85s-29.29,6.92-45.18-11.73-21.44-43.68-12.41-55.85c9.08-12.23,29.29-6.92,45.18,11.73Z"/>
          <path id="path23258" class="cls-19" d="M400.79,468.52c1.41-28.23-30.4,25.12-10.19,17.09,20.22-8.03-49.48-21.02-22.3-4.16,27.18,16.85-39.58-54.83-21.36-22.94,18.22,31.88-6.49-56.54-7.9-28.31-1.42,28.25,30.38-25.08,10.17-17.05-20.21,8.04,49.48,21.01,22.31,4.14s39.57,54.85,21.36,22.95c-18.21-31.9,6.5,56.51,7.92,28.28h0Z"/>
        </g>
        <g id="g25013">
          <path id="path25015" class="cls-8" d="M71.99,256.99c13.45,19.55,16.45,44.21,6.6,55.15-9.79,10.88-28.68,3.87-42.13-15.68-13.45-19.55-16.4-44.27-6.6-55.15,9.85-10.94,28.68-3.87,42.13,15.68Z"/>
          <path id="path25017" class="cls-19" d="M81.7,297.74c4.02-27.14-31.46,21.34-11.36,15.53,20.1-5.82-45.36-25.07-20.95-6.16,24.42,18.89-32.7-56.78-18.28-24.22,14.42,32.56-.87-55.25-4.89-28.11-4.03,27.15,31.44-21.31,11.34-15.49-20.1,5.82,45.37,25.06,20.96,6.15-24.41-18.91,32.69,56.8,18.27,24.23-14.42-32.57,.89,55.23,4.91,28.09h0Z"/>
        </g>
        <path id="path30395" class="cls-14" d="M393.79,336.14l136.74,61.01m67.34-60.02c3.13-2.18,4.19-46.22-52.61-109.33,39.82,59.13,52.61,109.33,52.61,109.33Z"/>
      </g>
    </g>
  </g>
</svg>