<?xml version="1.0" encoding="utf-8"?>
<!-- Generator: Adobe Illustrator 27.0.0, SVG Export Plug-In . SVG Version: 6.00 Build 0)  -->
<svg version="1.1" id="Layer_2_00000072975076225348685040000012682362785784934326_"
	 xmlns="http://www.w3.org/2000/svg" xmlns:xlink="http://www.w3.org/1999/xlink" x="0px" y="0px" viewBox="0 0 637.9 506"
	 style="enable-background:new 0 0 637.9 506;" xml:space="preserve">
<g id="svg2">
	<g id="layer1">
		<g id="g34996">
			<path id="path33122" style="fill:#C4C2C4;" d="M551,457.4c12.9-0.3,41.8-18.1,50.8-30.2c8.9-12.1,16.3-56.8-0.5-28.4
				s-23.9,38.9-53.1,48.9C519,457.6,551,457.9,551,457.4L551,457.4z"/>
			<path id="path28577" style="fill:#CE3B28;stroke:#050000;stroke-width:0.88;stroke-linecap:round;stroke-linejoin:round;" d="
				M493.8,449.3l26.9-26.3c0,0,3.1,5.5,11.6,3.7s80-50.7,84.9-61.7c4.9-11,6.7,1.2,6.7,1.2s-5.5,20.8-26.3,36.7
				c-20.8,15.9-51.3,37.3-66.6,40.9C515.8,447.5,495,449.3,493.8,449.3L493.8,449.3L493.8,449.3z"/>
			<path id="path27671" style="fill:#CAD4EE;" d="M490.2,451.1c-20.6-4.6-44-23.2-36.6-31.8c7.3-8.6,11.6-9.8,11.6-9.8l58,9.8
				c0,0,14.6,5,14.7,12.8C537.9,439.5,510.8,455.8,490.2,451.1L490.2,451.1L490.2,451.1z"/>
			<path id="path21491" style="fill:#28251F;" d="M9.8,239.9l23.1-10.5c0,0-1-3.7,22.1-15.8c23.2-12.1-50.5-12.1-48.4,3.7
				C8.7,233.1,10.8,240.4,9.8,239.9L9.8,239.9z"/>
			<path id="path21489" style="fill:#28251F;" d="M318.6,434l23.1-10.5c0,0-12.1-15.2,11-27.4c23.1-12.1,50-4.7,33.7-18.9
				c-16.3-14.2-28.9-29.5-50.5-16.3c-21.6,13.1-26.8,37.4-24.7,53.1C313.3,429.8,319.6,434.5,318.6,434L318.6,434L318.6,434z"/>
			<path id="path21487" style="fill:#ADADAC;" d="M385.4,330.9c-26.3-10.5-119.9-130.4-119.9-130.4L402.2,93.1
				c0,0,95.7,84.2,122,105.2c26.3,21-33.7,102-33.7,102L385.4,330.9L385.4,330.9L385.4,330.9z"/>
			<g id="g23254">
				<path id="path17974" d="M335.1,399.1c16.5-12.2,17.5-11.7,21.5-13.8c9.5-4.7,38-10.3,61.1,14.3c23.3,24.5,33,59,21.8,76.8
					s-32.7,24.7-36.7,26.2"/>
				<path id="path2225" style="fill:#585758;" d="M391.5,417.5c23.4,24.3,33.5,58.8,22.5,76.9c-10.9,18.1-38.6,13.1-62-11.2
					c-0.4-0.4-0.7-0.8-1.1-1.1c-23.4-24.3-33.5-58.8-22.5-76.9c10.9-18.1,38.6-13.1,62,11.2C390.7,416.7,391.1,417.1,391.5,417.5
					L391.5,417.5L391.5,417.5z"/>
			</g>
			<g id="g22368">
				<path id="path19729" d="M25.2,226.1c16.8-10,16.9-7.8,20.9-9.4c18.1-8.5,37.8-8,57,17.6s24.9,59.3,12.6,75.2
					c-12.3,15.9-29.3,18-35.2,20.7"/>
				<path id="path19731" style="fill:#585758;" d="M76.7,248.8C96.1,274.2,102,308,90,324.2s-37.5,8.8-56.9-16.7
					c-0.3-0.4-0.6-0.8-0.9-1.2C12.9,280.9,6.9,247.1,19,230.9s37.5-8.8,56.9,16.7C76.1,247.9,76.4,248.3,76.7,248.8L76.7,248.8
					L76.7,248.8z"/>
			</g>
			<path id="path3977" d="M344.6,295.8c0,0,62.9-28.6,71.8-45.8s4.8-41.3,28.3-55.1c23.4-13.8,42.4-18.2,50.6-16s25,2.2,32.3,29.6
				c7.4,27.6-6.9,51-40.6,80.8c-33.8,29.8-101.8,35-101.8,35l-21.2-8.6L344.6,295.8L344.6,295.8z"/>
			<path id="path25892" style="fill:#BBBBBD;" d="M30.6,153.4c-2.9-2.4-3.6-12.8-6.5-15.2C35.9,124.5,45.4,116,59,106.6
				c6.5-5.4,14.5-9.4,23-10c6.8-0.7,4.2,7.3,1,9.9c-11.5,12.7-21.9,26.3-34.1,38.4c-3.7,3.1-7.5,7.7-12.7,7.6
				C34.6,151.9,28.5,148.9,30.6,153.4L30.6,153.4z"/>
			<path id="path7480" style="fill:#9A0000;stroke:#020200;stroke-width:0.9;stroke-linecap:round;stroke-linejoin:round;" d="
				M15.4,147.4c0,0-15.2,10.8-11.4,30.3C7.9,197.2,36,192.9,36,192.9s15.2-2.2-0.5-23.3C19.8,148.5,16,147.4,15.4,147.4L15.4,147.4z
				"/>
			<path id="path6604" d="M29.5,152.8c-2.9-2.4-5.8-10.2-5.4-14.6C35.9,124.5,49,114,59,106.6c10-7.3,14.5-9.4,23-10
				c6.8-0.7,4.2,7.3,1,9.9c-4.4,6.9-21.9,26.3-34.1,38.4c-3.7,3.1-4.3,7.2-9.5,7.1C37.9,153.1,33.7,153.4,29.5,152.8L29.5,152.8z"/>
			<path id="path14468" style="fill:#CE3B28;stroke:#010000;stroke-width:0.8;stroke-linecap:round;stroke-linejoin:round;" d="
				M81,108.4c-12.5-4.3-20.6-9.8-6.5-24.4c14.1-14.6,59.6-48.2,68.2-54.2c8.7-6,41.2-26,51.4-28.7S225,3.9,225,3.9L81,108.4
				L81,108.4z"/>
			<path id="path13593" style="fill:#CE3B28;" d="M80.4,109.5c0,0,36.3-41.2,73.1-66.1c36.8-24.9,54.1-41.2,67.2-41.2
				c20.6,0,88.3,27.6,136.5,55.2c48.2,27.6,142.4,116.4,156.5,133.2c-46.6-42.8-109.4-94.2-109.4-94.2s-32.5,37.4-53.1,53.6
				s-75.3,52-75.3,52l98.6,119.1l-6,2.7c0,0-17.9,1.6-26.5-13c-8.7-14.6-59.2-80.2-89.4-103.4c-33-25.4-84.1-52.4-110.5-67.7
				C117.8,125.7,81.5,110,80.4,109.5L80.4,109.5L80.4,109.5z"/>
			<path id="path20612" style="fill:#ADADAC;" d="M64.5,193.1l261.9,164.1c0,0,21-37.9,0-67.3s-53.6-67.3-85.2-91.5
				c-31.6-24.2-134.6-83.1-149.4-77.8c-14.7,5.3-30.5,10.5-31.6,28.4C59.3,166.8,65.6,195.2,64.5,193.1L64.5,193.1L64.5,193.1z"/>
			<path id="path29520" d="M317,341.4L71.9,196.2c0,0-15.8-48.4,7.4-29.4c23.1,18.9,54.7,17.9,54.7,17.9s38.9-6.3,68.4,25.2
				c29.4,31.6,33.7,60,68.4,68.4c34.7,8.4,38.9,13.7,41,30.5C313.9,325.6,319.1,344.6,317,341.4L317,341.4z"/>
			<path id="path1350" style="fill:#CE3B28;" d="M80.9,109.1c-3.6,6.3-36.1,42-45.8,42.8C25.5,152.6,24,137,24,137
				s-8.9,6.7-8.2,13.4c0.7,6.7,26,37.2,17.5,40.2S4.7,179.4,4.7,179.4c-0.3,0.2-5.2,2.9-4.1,24.2c1.1,21.9,4.8,20.8,4.8,28.6
				s1.8,8.6,4.8,8.2s5.6-17.9,19.7-22.7c14.1-4.8,23.8-0.8,36.4,10.8c12.7,11.5,26,26.8,30.9,52.8c4.8,26-1.9,20.8,2.6,26
				s7.8,3.4,14.5,8.2c6.7,4.8,186.7,103.8,189.7,108.2s8.5,10.4,13.4,10.8s1.7-10.6,1.5-21.9c-0.2-13,3.7-26.8,10-31.3
				c6.3-4.5,17.5-11.1,45.4,9.3c27.9,20.5,43.9,34.6,52.4,49.8c8.6,15.2,62.9,28.3,62.9,28.3l-1.5-21.2c0,0-7.8,0.7-18.2-8.6
				c-10.4-9.3-11.9-14.5-11.2-18.6c0.9-4.9,4-6.5,4.4-6.7l-99.6-95.2c0,0-10.8,1.1-22.3-16c-11.5-17.1-40.2-63.6-82.6-94.1
				C216.3,177.9,112.4,115.4,80.9,109.1L80.9,109.1L80.9,109.1z M91.2,130.3c1.4,0,2.8,0.1,4.4,0.3c13,1.6,133.2,66.1,156,88.8
				c22.8,22.8,69.3,76.9,68.8,98.6c-0.5,21-3.1,25.2-3.3,25.4h-0.5l-143-84L71.8,196.1c6-23.8-3.3-38.4,1.1-49.8
				C76.7,136.3,81.3,130.5,91.2,130.3L91.2,130.3z M184.4,176.3c-0.4,2-4,18.5-5.4,29c-1.1,8.4-5.4,48.4-5.4,53.5L184.4,176.3
				L184.4,176.3z"/>
			<path id="path5729" style="fill:#CE3B28;" d="M472.9,452.8l-12.3-3.4c0,0-13.4-8.9-18.6-7.4c-5.2,1.5-10,16-3,27.1
				c7.1,11.2,36.1,12.6,49.1,13.4c13,0.7,41.6,1.9,67.3-16.7c25.7-18.6,51.7-36.8,59.9-54.7c8.2-17.9-0.7-17.1-0.7-17.1
				s-11.5,34.6-27.5,45.4c-16,10.8-22.7,17.1-47.2,16.4C515.3,455,473.3,452.8,472.9,452.8L472.9,452.8L472.9,452.8z"/>
			<path id="path4854" d="M587.6,410.6c-18.8,12.4-55.5,38-83.4,37.6s-45.4-3.7-45.4,1.1s30.1,23.4,59.5,18.6s70.7-32,83.3-45
				c12.7-13,31.2-31.4,34.6-55.8c3.3-24.2,0.4-39.4-3.3-47.2c-5.2,4.1,1.1,7.1-0.7,17.5c-1.9,10.4-4,24.6-9.1,32.9
				C611.1,389.5,606.6,398.2,587.6,410.6L587.6,410.6L587.6,410.6z"/>
			<path id="path28546" style="fill:#CAD4EE;" d="M617.8,313.1l4.3,28.7c0,0-3.1,11.6-2.5,18.9c0.6,7.3,9.8,7.3,12.2-25
				c2.5-32.4-7.3-44-7.3-44s-6.1-10.4-7.3,10.4C616,322.9,618.5,312.5,617.8,313.1L617.8,313.1z"/>
			<path id="path2227" style="fill:#CE3B28;stroke:#030300;stroke-width:0.95;stroke-linecap:round;stroke-linejoin:round;" d="
				M463.6,413.3l71.3,12.8c40.5-7.8,75.5-42.4,84.8-66.7c0,0,6.3-10,4.1-30.1c-2.2-20.1-7.4-36.5-4.8-39.4s-64.7-76.6-89.3-93.7
				C505.3,179,509,184.2,519,198c10,13.8,0.7,37.6-5.6,48c-6.3,10.4-20.5,33.5-27.9,35.3c-7.4,1.9-8.5-1.9-11.5,1.1
				s-27.9,22.7-46.9,29.8c-19,7.1-45.4,15.8-59.9,3.7l-2.6,3L463.6,413.3L463.6,413.3L463.6,413.3z"/>
			<path id="path3102" d="M273.3,202.5l93.3,112.7c0,0,4.5,10,21.2,4.1c16.7-6,69.9-34.6,94.5-62.5c24.5-27.9,38.3-49.1,26.4-65.5
				c-11.9-16.4-99.7-92.2-105.2-95.2c-3.7,6.3-21.4,27.3-53.9,53.9C317,176.6,273.3,202.5,273.3,202.5L273.3,202.5L273.3,202.5z"/>
			<path id="path16226" style="fill:#CE3B28;" d="M173.1,260.6c0,20.2,2.6,30.4,2.7,71 M315.5,343.5l-143-84L70.7,196.1 M316,343.5
				c0,0-6,33.6-16.8,41.7c-10.8,8.1-18.4,10.3-56.3-13c-37.9-23.3-125.1-69.9-133.2-82.9c-8.1-13-6.5-17.9-17.3-36.3
				c-10.8-18.4-23.3-29.2-23.8-37.4c-0.6-8.1,2.2-19.5,2.2-19.5"/>
			<path id="path20609" d="M186,175.8c0,0-3.9,17.9-5.4,29.1c-1.1,8.4-5.4,48.8-5.4,53.3 M317.5,342.2l-142.3-83.5l-101.3-63
				c5.9-23.7-3.2-38.2,1.1-49.6c4.3-11.3,9.7-17.2,22.6-15.6c12.9,1.6,132.6,65.7,155.2,88.3c22.6,22.6,69,76.5,68.5,98
				c-0.5,21.5-3.2,25.3-3.2,25.3"/>
			<g id="g25009">
				<path id="path24133" d="M386.6,427.8c15.9,18.6,21.5,43.6,12.4,55.9s-29.3,6.9-45.2-11.7s-21.4-43.7-12.4-55.9
					C350.5,403.8,370.7,409.1,386.6,427.8z"/>
				<path id="path23258" style="fill:#C9C9C9;" d="M400.8,468.5c1.4-28.2-30.4,25.1-10.2,17.1c20.2-8-49.5-21-22.3-4.2
					c27.2,16.9-39.6-54.8-21.4-22.9c18.2,31.9-6.5-56.5-7.9-28.3c-1.4,28.2,30.4-25.1,10.2-17c-20.2,8,49.5,21,22.3,4.1
					s39.6,54.9,21.4,23C374.7,408.3,399.4,496.8,400.8,468.5L400.8,468.5L400.8,468.5z"/>
			</g>
			<g id="g25013">
				<path id="path25015" d="M72,257c13.4,19.5,16.5,44.2,6.6,55.1c-9.8,10.9-28.7,3.9-42.1-15.7s-16.4-44.3-6.6-55.1
					C39.7,230.4,58.5,237.4,72,257z"/>
				<path id="path25017" style="fill:#C9C9C9;" d="M81.7,297.7c4-27.1-31.5,21.3-11.4,15.5c20.1-5.8-45.4-25.1-21-6.2
					c24.4,18.9-32.7-56.8-18.3-24.2s-0.9-55.2-4.9-28.1c-4,27.2,31.4-21.3,11.3-15.5c-20.1,5.8,45.4,25.1,21,6.1
					s32.7,56.8,18.3,24.2S77.7,324.9,81.7,297.7L81.7,297.7L81.7,297.7z"/>
			</g>
			<path id="path30395" d="M393.8,336.1l136.7,61 M597.9,337.1c3.1-2.2,4.2-46.2-52.6-109.3C585.1,286.9,597.9,337.1,597.9,337.1z"
				/>
		</g>
	</g>
</g>
</svg>
